<?xml version="1.0" standalone="no"?>
<!DOCTYPE svg PUBLIC "-//W3C//DTD SVG 20010904//EN"
 "http://www.w3.org/TR/2001/REC-SVG-20010904/DTD/svg10.dtd">
<svg version="1.0" xmlns="http://www.w3.org/2000/svg"
 width="435.000000pt" height="433.000000pt" viewBox="0 0 435.000000 433.000000"
 preserveAspectRatio="xMidYMid meet">

<g transform="translate(0.000000,433.000000) scale(0.100000,-0.100000)"
fill="#000000" stroke="none">
<path d="M0 4083 l0 -248 47 0 c36 0 48 -4 51 -17 2 -10 -5 -19 -18 -23 -26
-8 -21 -29 8 -33 13 -2 25 4 31 17 13 23 37 18 44 -9 10 -39 -36 -52 -98 -26
-69 29 -65 72 -65 -799 l0 -778 38 6 c101 16 192 20 192 8 0 -8 -8 -10 -20 -6
-10 3 -36 2 -57 -4 -21 -5 -64 -12 -95 -16 -48 -5 -58 -10 -58 -26 0 -16 7
-19 53 -18 28 0 77 4 107 8 65 10 77 6 54 -20 -24 -27 -12 -34 64 -34 53 0 67
-3 67 -15 0 -11 -13 -15 -53 -15 -35 0 -56 -5 -62 -15 -11 -18 -4 -30 21 -30
25 0 25 -30 -1 -58 -24 -25 -70 -30 -70 -7 0 22 -31 18 -37 -4 -5 -19 -46 -31
-110 -31 l-33 0 0 -156 c0 -85 4 -163 9 -172 18 -36 21 -81 6 -96 -21 -20 -19
-36 5 -36 11 0 20 -4 20 -10 0 -5 -9 -10 -20 -10 -19 0 -20 -7 -20 -90 0 -106
-2 -105 97 -59 272 126 384 190 491 281 35 29 96 53 117 45 25 -10 83 13 132
54 44 36 52 39 98 37 46 -3 51 -6 67 -38 28 -57 24 -70 -19 -69 -21 1 -55 -6
-75 -15 -37 -16 -38 -16 -44 9 -7 30 -9 30 -59 5 -22 -11 -45 -20 -52 -20 -16
0 -63 -62 -63 -84 0 -15 5 -13 33 7 60 46 163 89 129 55 -25 -25 -3 -247 54
-543 8 -44 24 -127 34 -185 23 -120 42 -225 62 -324 13 -67 14 -70 96 -147 46
-44 89 -79 96 -79 7 0 23 -11 35 -24 13 -13 60 -45 104 -71 45 -26 105 -62
133 -80 122 -79 107 -76 377 -71 133 2 253 6 267 7 14 2 54 0 90 -4 58 -7 63
-6 46 7 -13 11 -32 13 -62 9 -57 -7 -60 15 -6 39 20 9 58 25 83 37 26 11 71
29 100 40 147 53 196 72 214 81 11 5 45 17 75 26 30 10 57 21 60 24 3 4 16 9
30 12 23 6 68 20 115 39 11 4 34 12 50 17 l30 10 -31 1 c-18 1 -45 -6 -60 -14
-16 -8 -38 -15 -50 -15 -11 0 -24 -4 -30 -8 -5 -5 -36 -17 -69 -27 -33 -10
-64 -21 -69 -26 -6 -5 -17 -9 -25 -9 -17 0 -202 -67 -316 -115 -22 -9 -51 -21
-65 -27 -14 -5 -38 -16 -55 -23 -70 -30 -96 -37 -112 -30 -10 4 -35 8 -56 10
-62 5 -186 85 -132 85 9 0 13 5 9 11 -3 6 -20 9 -36 7 -17 -3 -47 1 -67 8 -20
7 -56 13 -81 15 -49 3 -80 22 -80 49 0 10 -7 23 -15 30 -30 25 8 76 107 141
26 17 45 36 42 43 -8 20 95 40 209 40 l102 1 7 90 c3 50 4 198 2 330 -2 132
-4 250 -4 263 0 16 -6 22 -21 22 -19 0 -21 4 -15 32 3 17 13 39 21 48 8 8 14
24 15 35 0 11 0 70 0 130 0 100 -2 112 -21 128 l-21 17 20 0 c16 0 23 8 28 36
10 53 -1 135 -20 149 -19 14 -22 55 -3 55 6 0 0 10 -15 23 -33 27 -53 66 -49
92 2 11 20 38 40 60 l38 41 0 362 c1 304 -1 365 -13 377 -14 13 -38 22 -117
39 -19 5 -32 16 -38 35 -7 20 -26 36 -67 56 -31 15 -70 37 -87 50 -28 20 -49
28 -117 42 -31 6 -73 47 -64 61 3 6 20 13 36 17 17 4 43 17 58 30 15 12 43 26
62 30 19 4 40 11 45 15 24 18 79 17 99 -2 17 -16 30 -18 91 -12 61 5 73 4 94
-13 24 -19 25 -25 25 -147 0 -82 4 -126 11 -126 21 0 197 195 277 305 20 28
58 95 83 148 26 53 51 94 56 91 12 -7 12 -140 0 -163 -6 -10 -28 -26 -50 -36
-60 -26 -56 -52 9 -61 47 -6 50 -9 60 -43 5 -20 10 -41 10 -48 0 -28 53 -130
81 -155 36 -33 69 -37 69 -9 0 11 -4 23 -10 26 -15 9 -12 25 4 25 8 0 16 7 20
15 7 19 30 19 61 -1 46 -30 55 -3 28 82 -13 43 -14 59 -5 79 10 22 18 25 60
25 l48 0 22 -70 c12 -39 22 -79 22 -90 0 -25 95 -120 120 -120 10 0 23 8 29
17 9 17 11 16 33 -4 13 -11 32 -23 43 -25 16 -3 19 -11 17 -38 -3 -38 -10 -49
-20 -35 -4 6 -90 11 -201 13 -171 2 -204 0 -270 -18 -49 -14 -84 -30 -99 -46
-13 -13 -27 -24 -32 -24 -6 0 -10 -6 -10 -13 0 -7 -18 -33 -40 -57 -61 -68
-53 -78 23 -30 57 36 143 80 156 80 5 0 9 -24 8 -53 -1 -41 4 -60 23 -87 14
-19 28 -38 32 -41 13 -9 168 -1 229 11 l55 12 0 56 c1 32 5 73 10 92 9 32 13
35 48 34 42 -2 86 -21 86 -39 0 -6 -8 -27 -19 -48 -11 -22 -18 -55 -17 -81 1
-43 0 -44 -25 -39 -18 3 -28 0 -32 -11 -5 -12 1 -18 22 -22 39 -8 42 -26 31
-164 -12 -152 -31 -624 -29 -748 1 -93 0 -100 -31 -152 -18 -30 -50 -79 -71
-109 -40 -55 -47 -77 -29 -83 7 -2 3 -107 -10 -310 -25 -364 -24 -461 4 -466
10 -2 16 0 12 6 -3 5 -8 28 -11 51 -8 65 4 67 165 27 l45 -12 2 -179 c2 -99 5
-213 9 -253 l6 -72 194 0 194 1 -20 26 c-43 55 -9 58 83 8 l65 -35 137 0 138
0 -7 47 c-4 27 -9 150 -11 275 l-4 228 48 102 c116 245 131 437 58 723 -11 44
-21 99 -22 122 -2 33 -10 50 -34 75 -17 17 -31 39 -31 48 0 8 -18 46 -40 84
-22 37 -40 70 -40 73 0 2 -19 30 -42 61 -45 61 -45 61 -81 107 -42 53 -45 65
-31 130 7 33 13 80 14 105 0 25 7 54 15 64 10 14 15 45 15 97 0 45 5 81 11 84
6 4 9 30 8 59 -3 48 -2 51 20 48 22 -3 23 -1 17 45 -18 153 0 573 33 783 43
266 50 390 30 555 -5 50 -16 110 -23 135 -8 25 -19 65 -26 90 -6 25 -18 59
-25 75 -7 17 -20 49 -30 73 -10 23 -21 42 -25 42 -14 0 -18 -40 -6 -48 7 -4
21 -34 30 -67 10 -33 24 -76 31 -95 32 -84 48 -195 49 -334 1 -138 -10 -283
-21 -272 -3 3 -9 47 -14 98 -5 51 -13 113 -18 138 -5 25 -17 115 -25 200 -15
148 -24 210 -48 328 l-11 52 -1222 0 -1221 0 -45 -29 c-24 -15 -90 -74 -146
-130 -86 -85 -108 -101 -135 -102 -18 0 -76 -2 -128 -4 -52 -1 -111 -6 -131
-10 -24 -4 -47 -2 -73 9 -28 12 -43 13 -58 5 -11 -6 -27 -8 -35 -4 -14 5 -13
8 5 26 12 11 22 27 22 37 1 9 18 49 39 87 35 63 42 70 72 73 19 2 38 7 42 12
10 9 -170 25 -208 18 -14 -3 -28 -1 -31 3 -3 5 -16 9 -28 9 -28 0 -50 -22 -36
-36 6 -6 10 -53 10 -105 -1 -52 -1 -111 -1 -132 1 -26 -3 -37 -12 -34 -13 4
-25 95 -27 207 -1 35 -6 73 -11 82 -12 23 -84 25 -93 3 -4 -12 -27 -14 -123
-12 -88 1 -117 5 -115 15 1 7 -8 12 -23 12 l-25 0 0 -247z m280 146 c0 -26 4
-39 14 -39 14 0 26 -49 26 -114 0 -33 -2 -37 -17 -30 -10 5 -41 8 -70 7 -59
-3 -71 8 -50 40 8 13 17 56 20 97 3 41 6 76 6 77 2 4 56 9 64 5 4 -2 7 -21 7
-43z m-13 -235 c3 -8 14 -14 24 -14 10 0 19 -5 19 -10 0 -6 -11 -8 -25 -4 -35
9 -32 -12 5 -31 17 -9 30 -20 30 -25 0 -9 -11 -11 -77 -14 -13 -1 -20 13 -29
56 -8 42 -8 58 0 61 18 6 47 -5 53 -19z m-77 -55 c0 -11 -4 -17 -10 -14 -5 3
-10 15 -10 26 0 11 5 17 10 14 6 -3 10 -15 10 -26z m190 -169 c0 -19 -20 -27
-33 -13 -8 7 11 33 24 33 5 0 9 -9 9 -20z m-82 -55 c-3 -56 -17 -77 -19 -27 0
15 -2 39 -4 55 -3 19 1 27 11 27 11 0 14 -12 12 -55z m70 -27 c-2 -23 -9 -34
-22 -36 -15 -3 -17 0 -11 14 4 11 8 26 10 34 2 8 4 16 4 18 1 1 6 2 12 2 6 0
9 -14 7 -32z m390 -56 c0 -21 4 -47 10 -58 12 -22 7 -34 -13 -34 -17 0 -35 45
-35 90 0 33 3 40 20 40 17 0 20 -6 18 -38z m-38 -102 c0 -5 -7 -10 -16 -10 -8
0 -12 5 -9 10 3 6 10 10 16 10 5 0 9 -4 9 -10z m1235 -20 c3 -5 -1 -10 -9 -10
-8 0 -18 5 -21 10 -3 6 1 10 9 10 8 0 18 -4 21 -10z m-1382 -27 c-7 -2 -19 -2
-25 0 -7 3 -2 5 12 5 14 0 19 -2 13 -5z m1470 0 c-7 -2 -21 -2 -30 0 -10 3 -4
5 12 5 17 0 24 -2 18 -5z m-1851 -105 c-8 -8 -9 -4 -5 13 4 13 8 18 11 10 2
-7 -1 -18 -6 -23z m252 -35 c66 3 69 -17 5 -31 -71 -17 -79 -15 -79 11 0 27
11 42 19 28 4 -5 28 -9 55 -8z m2156 -39 c0 -19 -4 -34 -10 -34 -5 0 -10 18
-10 41 0 24 4 38 10 34 6 -3 10 -22 10 -41z m-556 24 c3 -7 7 -25 10 -40 6
-27 5 -28 -36 -27 -24 1 -35 3 -25 6 20 5 23 29 5 37 -9 3 -7 9 6 20 24 19 35
20 40 4z m-111 -55 c-7 -2 -21 -2 -30 0 -10 3 -4 5 12 5 17 0 24 -2 18 -5z
m-1446 -64 c16 -14 17 -55 2 -65 -13 -8 -79 54 -79 74 0 11 8 13 32 8 17 -3
37 -11 45 -17z m2133 -96 c0 -20 -3 -24 -11 -16 -7 7 -9 19 -6 27 10 24 17 19
17 -11z m48 -70 c10 -19 6 -40 -11 -61 -13 -17 -27 2 -27 39 0 41 22 53 38 22z
m-2188 -39 c19 -22 -9 -49 -44 -40 -32 8 -34 33 -3 46 31 12 33 12 47 -6z
m1126 -194 c62 -18 108 -39 89 -40 -5 -1 -85 -2 -176 -3 l-166 -2 30 28 c16
15 37 32 46 37 20 12 93 4 177 -20z m70 -95 c53 -16 81 -31 74 -39 -6 -6 -176
37 -186 47 -13 13 60 8 112 -8z m-1181 -45 c4 -6 -5 -10 -19 -10 -14 0 -26 5
-26 10 0 6 9 10 19 10 11 0 23 -4 26 -10z m899 -34 c4 -19 13 -37 21 -40 30
-11 16 -29 -17 -22 -32 6 -98 45 -98 57 0 8 61 38 76 39 7 0 15 -15 18 -34z
m101 25 c3 -5 1 -12 -5 -16 -5 -3 -10 1 -10 9 0 18 6 21 15 7z m70 -1 c3 -5 1
-10 -4 -10 -6 0 -11 5 -11 10 0 6 2 10 4 10 3 0 8 -4 11 -10z m107 1 c13 -5
35 -12 51 -15 53 -12 37 -21 -92 -53 -21 -5 -23 -3 -17 13 5 10 9 24 10 29 2
12 16 35 21 35 2 0 14 -4 27 -9z m188 -22 c0 -11 -4 -17 -10 -14 -5 3 -10 13
-10 21 0 8 5 14 10 14 6 0 10 -9 10 -21z m-75 -79 c-3 -5 -15 -10 -26 -10 -10
0 -19 5 -19 10 0 6 12 10 26 10 14 0 23 -4 19 -10z m-65 -60 c0 -15 -7 -20
-25 -20 -40 0 -25 27 23 39 1 1 2 -8 2 -19z m-134 -25 c4 -10 14 -13 29 -9 36
9 41 -15 9 -42 -16 -13 -35 -23 -41 -24 -7 0 -13 -7 -13 -15 0 -8 -12 -17 -27
-21 -53 -11 -55 -13 -48 -43 4 -21 2 -30 -9 -34 -9 -4 -16 -13 -16 -20 0 -8
-11 -19 -24 -25 -13 -6 -28 -24 -34 -40 -10 -30 -10 -31 27 -37 28 -5 48 -1
79 15 38 20 40 24 35 55 -5 30 -1 39 27 65 33 31 90 60 117 60 17 0 9 -51 -14
-86 -9 -15 -12 -35 -7 -62 8 -52 -15 -79 -71 -83 -47 -3 -66 -15 -58 -36 3 -8
1 -18 -4 -22 -24 -15 -23 -49 2 -79 21 -25 35 -32 73 -34 l47 -3 3 -40 c2 -38
1 -41 -40 -58 -24 -10 -52 -23 -63 -29 -11 -6 -61 -12 -112 -14 -77 -2 -92 1
-96 15 -7 21 -40 74 -51 82 -4 4 -11 36 -15 73 -7 70 2 110 32 135 26 21 21
29 -24 36 -51 9 -129 81 -129 119 0 26 42 58 92 70 15 3 38 17 52 31 18 18 36
25 63 25 30 0 43 7 65 32 17 20 44 37 70 44 60 16 68 16 74 -1z m2015 -137 c9
-90 -10 -193 -34 -185 -7 2 -12 8 -12 13 2 43 17 215 21 237 9 44 16 26 25
-65z m-422 -686 c-5 -13 -13 -20 -19 -17 -14 9 -13 318 2 445 l13 105 6 -255
c3 -140 2 -265 -2 -278z m-2704 389 c7 -13 -2 -18 -48 -26 -44 -9 -51 8 -9 23
35 13 50 14 57 3z m1195 -56 c0 -8 -4 -15 -10 -15 -5 0 -10 7 -10 15 0 8 5 15
10 15 6 0 10 -7 10 -15z m206 -20 c16 -16 23 -32 20 -42 -4 -9 -1 -20 6 -24
17 -11 6 -19 -36 -26 -29 -4 -36 -2 -36 10 0 10 -11 17 -32 19 -41 4 -49 37
-19 67 28 28 67 26 97 -4z m-1463 -32 c-7 -2 -21 -2 -30 0 -10 3 -4 5 12 5 17
0 24 -2 18 -5z m3400 -95 c107 -150 187 -327 187 -411 0 -47 3 -55 24 -67 21
-11 26 -22 31 -79 4 -36 11 -79 16 -95 21 -66 4 -284 -28 -371 -37 -96 -68
-158 -81 -163 -6 -2 -13 42 -17 105 -3 59 -10 143 -15 185 -6 52 -6 94 2 132
11 52 11 57 -9 75 -16 15 -22 37 -27 103 -4 45 -11 106 -16 133 -30 165 -44
234 -56 265 -7 19 -24 71 -37 115 -49 159 -44 171 26 73z m-2223 -108 c-21
-14 -30 -12 -30 4 0 18 22 27 35 14 6 -6 5 -12 -5 -18z m-55 -60 c-3 -5 -13
-10 -21 -10 -8 0 -12 5 -9 10 3 6 13 10 21 10 8 0 12 -4 9 -10z m-40 -70 c-3
-5 -11 -10 -16 -10 -6 0 -7 5 -4 10 3 6 11 10 16 10 6 0 7 -4 4 -10z m-425
-321 c0 -33 -4 -59 -10 -59 -6 0 -10 29 -10 66 0 41 4 63 10 59 6 -3 10 -33
10 -66z m940 51 c0 -14 -48 -35 -58 -26 -8 9 26 36 45 36 7 0 13 -5 13 -10z
m-916 -300 c7 -76 13 -105 46 -220 26 -91 39 -156 45 -221 2 -30 11 -72 20
-92 17 -42 20 -77 5 -77 -5 0 -10 -9 -10 -19 0 -30 -19 -35 -29 -8 -5 14 -12
58 -16 98 -3 41 -13 90 -20 109 -26 63 -82 500 -68 523 10 17 20 -15 27 -93z
m2595 -614 c24 -65 30 -131 13 -148 -10 -10 -15 -10 -22 2 -24 39 -41 200 -21
200 5 0 19 -24 30 -54z m-2451 -38 c14 -14 16 -28 2 -28 -5 0 -14 9 -20 20
-12 22 -1 27 18 8z m-28 -93 c0 -5 -5 -3 -10 5 -5 8 -10 20 -10 25 0 6 5 3 10
-5 5 -8 10 -19 10 -25z"/>
<path d="M1342 2371 c-10 -6 -7 -10 11 -13 32 -6 56 6 32 16 -21 8 -27 8 -43
-3z"/>
<path d="M3982 1270 c0 -14 2 -19 5 -12 2 6 2 18 0 25 -3 6 -5 1 -5 -13z"/>
<path d="M0 3791 c0 -12 6 -21 15 -21 8 0 15 4 15 9 0 5 -7 14 -15 21 -13 10
-15 9 -15 -9z"/>
<path d="M3871 2464 c0 -11 3 -14 6 -6 3 7 2 16 -1 19 -3 4 -6 -2 -5 -13z"/>
<path d="M2982 2449 c2 -7 10 -15 17 -17 8 -3 12 1 9 9 -2 7 -10 15 -17 17 -8
3 -12 -1 -9 -9z"/>
<path d="M2735 2440 c3 -5 10 -10 16 -10 5 0 9 5 9 10 0 6 -7 10 -16 10 -8 0
-12 -4 -9 -10z"/>
<path d="M2900 2431 c0 -12 5 -21 10 -21 6 0 10 6 10 14 0 8 -4 18 -10 21 -5
3 -10 -3 -10 -14z"/>
<path d="M3950 2245 c0 -5 5 -17 10 -25 5 -8 10 -10 10 -5 0 6 -5 17 -10 25
-5 8 -10 11 -10 5z"/>
<path d="M3982 2150 c0 -14 2 -19 5 -12 2 6 2 18 0 25 -3 6 -5 1 -5 -13z"/>
<path d="M0 2035 c0 -35 3 -44 13 -38 61 38 96 67 91 74 -3 5 -27 9 -55 9
l-49 0 0 -45z"/>
<path d="M4008 1985 c2 -19 6 -35 8 -35 2 0 4 16 4 35 0 19 -4 35 -8 35 -4 0
-6 -16 -4 -35z"/>
<path d="M2438 1429 c-10 -5 -53 -14 -95 -18 l-78 -8 93 -2 c89 -1 132 8 132
29 0 13 -30 12 -52 -1z"/>
<path d="M2278 773 c7 -3 16 -2 19 1 4 3 -2 6 -13 5 -11 0 -14 -3 -6 -6z"/>
<path d="M3015 390 c-8 -13 25 -13 45 0 12 8 9 10 -12 10 -15 0 -30 -4 -33
-10z"/>
<path d="M2940 370 c-11 -7 -7 -10 18 -10 17 0 32 5 32 10 0 13 -30 13 -50 0z"/>
</g>
</svg>
